<svg id="Layer_1" data-name="Layer 1" xmlns="http://www.w3.org/2000/svg" viewBox="0 0 104.53 104.53"><defs><style>.cls-1{fill:#25a8e0;stroke:#25a8e0;}.cls-1,.cls-2,.cls-3,.cls-4{stroke-linecap:round;stroke-linejoin:round;stroke-width:4px;}.cls-2{fill:#ffde00;stroke:#ffde00;}.cls-3{fill:#88c440;stroke:#88c440;}.cls-4{fill:#ee3e2c;stroke:#ee3e2c;}.cls-5{fill:#c2c2c2;}</style></defs><title>logo</title><path class="cls-1" d="M53,77.8A24.93,24.93,0,1,1,68.82,33.6l-.27.27a24.55,24.55,0,1,0,0,38l.27.27A24.81,24.81,0,0,1,53,77.8Z"/><path class="cls-2" d="M53,88.29A35.42,35.42,0,1,1,76.27,26.16l-.27.27a35,35,0,1,0,0,52.88l.27.27A35.23,35.23,0,0,1,53,88.29Z"/><path class="cls-3" d="M53,88.29A35.42,35.42,0,1,1,76.27,26.16l-.27.27a35,35,0,1,0,0,52.88l.27.27A35.23,35.23,0,0,1,53,88.29Z"/><path class="cls-4" d="M53,98.78A45.92,45.92,0,1,1,83.7,18.72l-.27.27a45.54,45.54,0,1,0,0,67.75l.27.27A45.65,45.65,0,0,1,53,98.78Z"/><circle class="cls-5" cx="53.29" cy="52.87" r="4.81"/></svg>